<?xml version="1.0" standalone="no"?>
<!DOCTYPE svg PUBLIC "-//W3C//DTD SVG 20010904//EN"
 "http://www.w3.org/TR/2001/REC-SVG-20010904/DTD/svg10.dtd">
<svg version="1.0" xmlns="http://www.w3.org/2000/svg"
 width="225.000000pt" height="225.000000pt" viewBox="0 0 225.000000 225.000000"
 preserveAspectRatio="xMidYMid meet">

<g transform="translate(0.000000,225.000000) scale(0.100000,-0.100000)"
fill="#000000" stroke="none">
<path d="M975 1840 c-3 -5 12 -17 34 -26 23 -9 41 -19 41 -24 0 -4 -17 -12
-38 -18 -20 -6 -46 -19 -57 -28 -23 -18 -29 -20 75 18 50 18 163 28 175 16 15
-15 -24 -62 -69 -85 -68 -34 -182 -154 -233 -246 -43 -78 -69 -176 -60 -224
10 -48 54 -163 70 -181 62 -70 133 -132 158 -137 16 -4 31 -11 34 -16 19 -29
25 5 25 133 0 113 -3 145 -15 158 -15 16 -13 17 23 7 65 -17 89 -5 123 66 36
77 40 151 8 191 -25 32 -69 56 -103 56 -14 0 -28 5 -32 12 -12 19 107 3 162
-22 27 -13 60 -23 74 -24 22 -1 25 -6 26 -39 1 -51 46 -113 107 -149 l49 -28
-7 42 c-8 49 -55 154 -97 215 -46 68 -151 167 -199 188 -24 10 -45 20 -47 21
-2 1 4 16 12 33 16 30 16 30 59 17 23 -8 50 -17 60 -21 28 -12 20 3 -10 18
-41 21 -158 40 -205 34 -43 -6 -83 8 -107 37 -15 18 -27 20 -36 6z m185 -393
c62 -49 77 -113 35 -146 -22 -16 -31 -18 -56 -9 -30 10 -59 52 -59 86 0 10 -6
24 -12 31 -11 10 -8 16 11 32 26 22 59 24 81 6z m-108 -68 c9 -18 18 -63 20
-99 l4 -66 -52 28 c-57 31 -68 42 -78 75 -5 16 -2 23 14 28 15 5 20 13 17 26
-3 12 3 25 16 34 29 20 39 16 59 -26z"/>
<path d="M1120 1410 c0 -5 5 -10 10 -10 6 0 10 5 10 10 0 6 -4 10 -10 10 -5 0
-10 -4 -10 -10z"/>
<path d="M858 1717 c31 -7 46 -7 54 1 9 9 -1 12 -42 11 l-55 -1 43 -11z"/>
<path d="M748 1699 c-31 -18 -20 -26 43 -33 48 -6 65 -4 77 8 13 13 10 16 -24
25 -48 13 -74 13 -96 0z"/>
<path d="M822 1604 c-57 -58 -101 -108 -98 -112 4 -3 28 -7 54 -8 63 -3 112
24 136 73 20 41 34 153 20 153 -5 0 -56 -48 -112 -106z"/>
<path d="M701 1638 c-7 -11 -11 -21 -9 -23 2 -2 27 -5 56 -6 38 -2 57 2 69 13
15 16 14 17 -8 22 -75 15 -95 14 -108 -6z"/>
<path d="M690 1570 c0 -15 7 -20 28 -20 16 0 37 9 47 20 18 20 17 20 -28 20
-40 0 -47 -3 -47 -20z"/>
<path d="M700 1519 c0 -5 5 -7 10 -4 6 3 10 8 10 11 0 2 -4 4 -10 4 -5 0 -10
-5 -10 -11z"/>
<path d="M1790 710 c0 -5 4 -10 9 -10 6 0 13 5 16 10 3 6 -1 10 -9 10 -9 0
-16 -4 -16 -10z"/>
<path d="M220 667 c-33 -17 -51 -55 -44 -92 9 -44 36 -67 88 -72 42 -5 46 -4
46 16 0 17 -6 21 -35 21 -28 0 -38 5 -47 25 -18 41 3 75 47 75 28 0 35 4 35
20 0 16 -7 20 -32 20 -18 0 -44 -6 -58 -13z"/>
<path d="M359 661 c-33 -26 -43 -63 -29 -106 19 -57 101 -75 145 -30 30 30 34
92 7 125 -26 32 -90 38 -123 11z m93 -46 c16 -35 -3 -75 -35 -75 -30 0 -47 18
-47 50 0 52 61 71 82 25z"/>
<path d="M530 678 c-1 -2 -2 -42 -4 -90 -2 -86 -2 -88 21 -88 21 0 23 4 23 52
l0 52 30 -29 c17 -16 30 -39 30 -52 0 -18 6 -23 25 -23 25 0 25 1 25 90 0 89
0 90 -25 90 -22 0 -25 -4 -25 -37 l0 -37 -38 37 c-31 30 -61 47 -62 35z"/>
<path d="M723 665 c-15 -10 -23 -26 -23 -45 0 -32 9 -40 53 -49 17 -4 33 -13
35 -20 3 -10 -7 -12 -42 -10 -38 3 -46 1 -46 -12 0 -20 20 -29 64 -29 38 0 76
24 76 49 0 23 -31 51 -56 51 -27 0 -48 16 -40 29 4 6 25 11 47 11 33 0 40 3
37 18 -4 24 -75 28 -105 7z"/>
<path d="M860 590 l0 -90 55 0 c48 0 55 2 55 20 0 16 -7 20 -35 20 -24 0 -35
5 -35 15 0 10 10 15 30 15 23 0 30 4 30 20 0 16 -7 20 -30 20 -20 0 -30 5 -30
15 0 10 11 15 35 15 28 0 35 4 35 20 0 18 -7 20 -55 20 l-55 0 0 -90z"/>
<path d="M1000 591 c0 -84 1 -91 20 -91 13 0 20 7 20 20 0 11 7 20 15 20 8 0
20 -9 27 -20 8 -13 24 -20 42 -20 l29 0 -23 25 c-22 23 -22 26 -7 43 21 23 22
75 1 93 -8 7 -40 14 -70 17 l-54 4 0 -91z m95 19 c0 -20 -6 -26 -27 -28 -25
-3 -28 0 -28 28 0 28 3 31 28 28 21 -2 27 -8 27 -28z"/>
<path d="M1170 590 l0 -90 39 0 c53 0 77 24 90 88 16 76 14 92 -9 92 -14 0
-21 -9 -26 -37 -13 -76 -21 -98 -37 -101 -15 -3 -17 6 -17 67 0 64 -2 71 -20
71 -19 0 -20 -7 -20 -90z"/>
<path d="M1363 670 c-16 -7 -24 -23 -33 -67 -6 -32 -14 -68 -17 -80 -4 -19 -1
-23 20 -23 19 0 26 6 29 23 2 16 10 22 28 22 18 0 26 -6 28 -22 2 -15 10 -23
23 -23 17 0 19 8 19 90 l0 90 -37 -1 c-21 0 -48 -4 -60 -9z m57 -60 c0 -25 -4
-30 -25 -30 -27 0 -31 10 -15 41 17 30 40 24 40 -11z"/>
<path d="M1530 667 c-36 -18 -55 -62 -43 -101 5 -17 15 -30 22 -28 7 1 10 -2
6 -8 -8 -12 36 -30 76 -30 22 0 29 5 29 20 0 16 -7 20 -33 20 -40 0 -57 15
-57 50 0 35 17 50 57 50 26 0 33 4 33 20 0 16 -7 20 -32 20 -18 0 -44 -6 -58
-13z"/>
<path d="M1640 590 c0 -87 1 -90 23 -90 23 0 24 10 17 168 0 6 -9 12 -20 12
-19 0 -20 -7 -20 -90z"/>
<path d="M1735 655 c-56 -56 -18 -155 60 -155 48 0 95 45 95 90 0 76 -102 119
-155 65z m93 -27 c7 -7 12 -24 12 -38 0 -52 -61 -71 -82 -25 -23 51 32 101 70
63z"/>
<path d="M1910 590 c0 -83 1 -90 20 -90 17 0 20 7 20 50 0 28 3 50 7 50 17 0
63 -56 63 -77 0 -16 6 -23 20 -23 19 0 20 7 20 90 0 83 -1 90 -20 90 -16 0
-20 -7 -20 -37 l0 -37 -38 37 c-62 60 -72 53 -72 -53z"/>
</g>
</svg>
